<mxfile host="app.diagrams.net" agent="Mozilla/5.0 (Macintosh; Intel Mac OS X 10_15_7) AppleWebKit/605.1.15 (KHTML, like Gecko) Version/18.3 Safari/605.1.15" version="26.0.11">
  <diagram id="C5RBs43oDa-KdzZeNtuy" name="Page-1">
    <mxGraphModel dx="1447" dy="1286" grid="1" gridSize="10" guides="1" tooltips="1" connect="1" arrows="1" fold="1" page="1" pageScale="1" pageWidth="827" pageHeight="1169" math="0" shadow="0">
      <root>
        <mxCell id="WIyWlLk6GJQsqaUBKTNV-0" />
        <mxCell id="WIyWlLk6GJQsqaUBKTNV-1" parent="WIyWlLk6GJQsqaUBKTNV-0" />
        <mxCell id="8qKSreufQs_Af0U8BpCK-13" value="" style="edgeStyle=orthogonalEdgeStyle;rounded=0;orthogonalLoop=1;jettySize=auto;html=1;" edge="1" parent="WIyWlLk6GJQsqaUBKTNV-1" source="8qKSreufQs_Af0U8BpCK-0" target="8qKSreufQs_Af0U8BpCK-2">
          <mxGeometry relative="1" as="geometry" />
        </mxCell>
        <mxCell id="8qKSreufQs_Af0U8BpCK-0" value="Start" style="strokeWidth=2;html=1;shape=mxgraph.flowchart.start_2;whiteSpace=wrap;" vertex="1" parent="WIyWlLk6GJQsqaUBKTNV-1">
          <mxGeometry x="30" y="20" width="100" height="100" as="geometry" />
        </mxCell>
        <mxCell id="8qKSreufQs_Af0U8BpCK-1" value="End" style="strokeWidth=2;html=1;shape=mxgraph.flowchart.terminator;whiteSpace=wrap;" vertex="1" parent="WIyWlLk6GJQsqaUBKTNV-1">
          <mxGeometry x="430" y="1070" width="184" height="90" as="geometry" />
        </mxCell>
        <mxCell id="8qKSreufQs_Af0U8BpCK-14" value="" style="edgeStyle=orthogonalEdgeStyle;rounded=0;orthogonalLoop=1;jettySize=auto;html=1;" edge="1" parent="WIyWlLk6GJQsqaUBKTNV-1" source="8qKSreufQs_Af0U8BpCK-2" target="8qKSreufQs_Af0U8BpCK-3">
          <mxGeometry relative="1" as="geometry" />
        </mxCell>
        <mxCell id="8qKSreufQs_Af0U8BpCK-2" value="Ask user for number between 1-12" style="strokeWidth=2;html=1;shape=mxgraph.flowchart.display;whiteSpace=wrap;" vertex="1" parent="WIyWlLk6GJQsqaUBKTNV-1">
          <mxGeometry x="200" y="27.5" width="200" height="105" as="geometry" />
        </mxCell>
        <mxCell id="8qKSreufQs_Af0U8BpCK-15" style="edgeStyle=orthogonalEdgeStyle;rounded=0;orthogonalLoop=1;jettySize=auto;html=1;" edge="1" parent="WIyWlLk6GJQsqaUBKTNV-1" source="8qKSreufQs_Af0U8BpCK-3" target="8qKSreufQs_Af0U8BpCK-4">
          <mxGeometry relative="1" as="geometry" />
        </mxCell>
        <mxCell id="8qKSreufQs_Af0U8BpCK-3" value="Get number, store as month" style="shape=parallelogram;html=1;strokeWidth=2;perimeter=parallelogramPerimeter;whiteSpace=wrap;rounded=1;arcSize=12;size=0.23;" vertex="1" parent="WIyWlLk6GJQsqaUBKTNV-1">
          <mxGeometry x="464" y="42.5" width="240" height="90" as="geometry" />
        </mxCell>
        <mxCell id="8qKSreufQs_Af0U8BpCK-16" style="edgeStyle=orthogonalEdgeStyle;rounded=0;orthogonalLoop=1;jettySize=auto;html=1;entryX=0;entryY=0.5;entryDx=0;entryDy=0;" edge="1" parent="WIyWlLk6GJQsqaUBKTNV-1" source="8qKSreufQs_Af0U8BpCK-4" target="8qKSreufQs_Af0U8BpCK-6">
          <mxGeometry relative="1" as="geometry" />
        </mxCell>
        <mxCell id="8qKSreufQs_Af0U8BpCK-17" value="True" style="edgeLabel;html=1;align=center;verticalAlign=middle;resizable=0;points=[];" vertex="1" connectable="0" parent="8qKSreufQs_Af0U8BpCK-16">
          <mxGeometry x="-0.0432" y="-5" relative="1" as="geometry">
            <mxPoint as="offset" />
          </mxGeometry>
        </mxCell>
        <mxCell id="8qKSreufQs_Af0U8BpCK-18" value="False&lt;div&gt;&lt;br&gt;&lt;/div&gt;" style="edgeStyle=orthogonalEdgeStyle;rounded=0;orthogonalLoop=1;jettySize=auto;html=1;" edge="1" parent="WIyWlLk6GJQsqaUBKTNV-1" source="8qKSreufQs_Af0U8BpCK-4" target="8qKSreufQs_Af0U8BpCK-7">
          <mxGeometry relative="1" as="geometry" />
        </mxCell>
        <mxCell id="8qKSreufQs_Af0U8BpCK-4" value="Is month in [3,4,5] ?" style="strokeWidth=2;html=1;shape=mxgraph.flowchart.decision;whiteSpace=wrap;" vertex="1" parent="WIyWlLk6GJQsqaUBKTNV-1">
          <mxGeometry x="377" y="180" width="147" height="140" as="geometry" />
        </mxCell>
        <mxCell id="8qKSreufQs_Af0U8BpCK-6" value="Set season to Spring" style="shape=parallelogram;html=1;strokeWidth=2;perimeter=parallelogramPerimeter;whiteSpace=wrap;rounded=1;arcSize=12;size=0;" vertex="1" parent="WIyWlLk6GJQsqaUBKTNV-1">
          <mxGeometry x="600" y="210" width="210" height="80" as="geometry" />
        </mxCell>
        <mxCell id="8qKSreufQs_Af0U8BpCK-19" value="" style="edgeStyle=orthogonalEdgeStyle;rounded=0;orthogonalLoop=1;jettySize=auto;html=1;" edge="1" parent="WIyWlLk6GJQsqaUBKTNV-1" source="8qKSreufQs_Af0U8BpCK-7" target="8qKSreufQs_Af0U8BpCK-8">
          <mxGeometry relative="1" as="geometry" />
        </mxCell>
        <mxCell id="8qKSreufQs_Af0U8BpCK-21" value="True&lt;div&gt;&lt;br&gt;&lt;/div&gt;" style="edgeLabel;html=1;align=center;verticalAlign=middle;resizable=0;points=[];" vertex="1" connectable="0" parent="8qKSreufQs_Af0U8BpCK-19">
          <mxGeometry x="-0.0865" y="-4" relative="1" as="geometry">
            <mxPoint as="offset" />
          </mxGeometry>
        </mxCell>
        <mxCell id="8qKSreufQs_Af0U8BpCK-22" value="" style="edgeStyle=orthogonalEdgeStyle;rounded=0;orthogonalLoop=1;jettySize=auto;html=1;" edge="1" parent="WIyWlLk6GJQsqaUBKTNV-1" source="8qKSreufQs_Af0U8BpCK-7" target="8qKSreufQs_Af0U8BpCK-9">
          <mxGeometry relative="1" as="geometry" />
        </mxCell>
        <mxCell id="8qKSreufQs_Af0U8BpCK-24" value="False" style="edgeLabel;html=1;align=center;verticalAlign=middle;resizable=0;points=[];" vertex="1" connectable="0" parent="8qKSreufQs_Af0U8BpCK-22">
          <mxGeometry x="-0.2735" y="-3" relative="1" as="geometry">
            <mxPoint as="offset" />
          </mxGeometry>
        </mxCell>
        <mxCell id="8qKSreufQs_Af0U8BpCK-7" value="Is month in [6,7,8] ?" style="strokeWidth=2;html=1;shape=mxgraph.flowchart.decision;whiteSpace=wrap;" vertex="1" parent="WIyWlLk6GJQsqaUBKTNV-1">
          <mxGeometry x="6.5" y="330" width="147" height="140" as="geometry" />
        </mxCell>
        <mxCell id="8qKSreufQs_Af0U8BpCK-31" style="edgeStyle=orthogonalEdgeStyle;rounded=0;orthogonalLoop=1;jettySize=auto;html=1;" edge="1" parent="WIyWlLk6GJQsqaUBKTNV-1" source="8qKSreufQs_Af0U8BpCK-8" target="8qKSreufQs_Af0U8BpCK-12">
          <mxGeometry relative="1" as="geometry" />
        </mxCell>
        <mxCell id="8qKSreufQs_Af0U8BpCK-8" value="Set season to Summer" style="shape=parallelogram;html=1;strokeWidth=2;perimeter=parallelogramPerimeter;whiteSpace=wrap;rounded=1;arcSize=12;size=0;" vertex="1" parent="WIyWlLk6GJQsqaUBKTNV-1">
          <mxGeometry x="250" y="360" width="210" height="80" as="geometry" />
        </mxCell>
        <mxCell id="8qKSreufQs_Af0U8BpCK-23" value="" style="edgeStyle=orthogonalEdgeStyle;rounded=0;orthogonalLoop=1;jettySize=auto;html=1;" edge="1" parent="WIyWlLk6GJQsqaUBKTNV-1" source="8qKSreufQs_Af0U8BpCK-9" target="8qKSreufQs_Af0U8BpCK-10">
          <mxGeometry relative="1" as="geometry" />
        </mxCell>
        <mxCell id="8qKSreufQs_Af0U8BpCK-25" value="True" style="edgeLabel;html=1;align=center;verticalAlign=middle;resizable=0;points=[];" vertex="1" connectable="0" parent="8qKSreufQs_Af0U8BpCK-23">
          <mxGeometry x="-0.1863" y="5" relative="1" as="geometry">
            <mxPoint x="-1" as="offset" />
          </mxGeometry>
        </mxCell>
        <mxCell id="8qKSreufQs_Af0U8BpCK-26" value="" style="edgeStyle=orthogonalEdgeStyle;rounded=0;orthogonalLoop=1;jettySize=auto;html=1;" edge="1" parent="WIyWlLk6GJQsqaUBKTNV-1" source="8qKSreufQs_Af0U8BpCK-9" target="8qKSreufQs_Af0U8BpCK-11">
          <mxGeometry relative="1" as="geometry" />
        </mxCell>
        <mxCell id="8qKSreufQs_Af0U8BpCK-27" value="False" style="edgeLabel;html=1;align=center;verticalAlign=middle;resizable=0;points=[];" vertex="1" connectable="0" parent="8qKSreufQs_Af0U8BpCK-26">
          <mxGeometry x="-0.0028" y="2" relative="1" as="geometry">
            <mxPoint as="offset" />
          </mxGeometry>
        </mxCell>
        <mxCell id="8qKSreufQs_Af0U8BpCK-9" value="Is month in [9,10,11] ?" style="strokeWidth=2;html=1;shape=mxgraph.flowchart.decision;whiteSpace=wrap;" vertex="1" parent="WIyWlLk6GJQsqaUBKTNV-1">
          <mxGeometry x="5" y="540" width="150" height="140" as="geometry" />
        </mxCell>
        <mxCell id="8qKSreufQs_Af0U8BpCK-30" style="edgeStyle=orthogonalEdgeStyle;rounded=0;orthogonalLoop=1;jettySize=auto;html=1;entryX=0.251;entryY=0.12;entryDx=0;entryDy=0;entryPerimeter=0;" edge="1" parent="WIyWlLk6GJQsqaUBKTNV-1" source="8qKSreufQs_Af0U8BpCK-10" target="8qKSreufQs_Af0U8BpCK-12">
          <mxGeometry relative="1" as="geometry" />
        </mxCell>
        <mxCell id="8qKSreufQs_Af0U8BpCK-10" value="Set season to Fall" style="shape=parallelogram;html=1;strokeWidth=2;perimeter=parallelogramPerimeter;whiteSpace=wrap;rounded=1;arcSize=12;size=0;" vertex="1" parent="WIyWlLk6GJQsqaUBKTNV-1">
          <mxGeometry x="280" y="570" width="210" height="80" as="geometry" />
        </mxCell>
        <mxCell id="8qKSreufQs_Af0U8BpCK-29" style="edgeStyle=orthogonalEdgeStyle;rounded=0;orthogonalLoop=1;jettySize=auto;html=1;" edge="1" parent="WIyWlLk6GJQsqaUBKTNV-1" source="8qKSreufQs_Af0U8BpCK-11" target="8qKSreufQs_Af0U8BpCK-12">
          <mxGeometry relative="1" as="geometry" />
        </mxCell>
        <mxCell id="8qKSreufQs_Af0U8BpCK-11" value="Set season to Winter" style="shape=parallelogram;html=1;strokeWidth=2;perimeter=parallelogramPerimeter;whiteSpace=wrap;rounded=1;arcSize=12;size=0;" vertex="1" parent="WIyWlLk6GJQsqaUBKTNV-1">
          <mxGeometry x="30" y="780" width="210" height="80" as="geometry" />
        </mxCell>
        <mxCell id="8qKSreufQs_Af0U8BpCK-12" value="Display &quot;The current season is {season}&quot;" style="strokeWidth=2;html=1;shape=mxgraph.flowchart.display;whiteSpace=wrap;" vertex="1" parent="WIyWlLk6GJQsqaUBKTNV-1">
          <mxGeometry x="530" y="850" width="280" height="140" as="geometry" />
        </mxCell>
        <mxCell id="8qKSreufQs_Af0U8BpCK-32" style="edgeStyle=orthogonalEdgeStyle;rounded=0;orthogonalLoop=1;jettySize=auto;html=1;entryX=0.853;entryY=0.08;entryDx=0;entryDy=0;entryPerimeter=0;" edge="1" parent="WIyWlLk6GJQsqaUBKTNV-1" source="8qKSreufQs_Af0U8BpCK-6" target="8qKSreufQs_Af0U8BpCK-12">
          <mxGeometry relative="1" as="geometry" />
        </mxCell>
        <mxCell id="8qKSreufQs_Af0U8BpCK-34" style="edgeStyle=orthogonalEdgeStyle;rounded=0;orthogonalLoop=1;jettySize=auto;html=1;entryX=0.645;entryY=0.044;entryDx=0;entryDy=0;entryPerimeter=0;" edge="1" parent="WIyWlLk6GJQsqaUBKTNV-1" source="8qKSreufQs_Af0U8BpCK-12" target="8qKSreufQs_Af0U8BpCK-1">
          <mxGeometry relative="1" as="geometry" />
        </mxCell>
      </root>
    </mxGraphModel>
  </diagram>
</mxfile>
